{
	"asset":{
		"generator":"Khronos glTF Blender I/O v3.6.27",
		"version":"2.0"
	},
	"scene":0,
	"scenes":[
		{
			"name":"Scene",
			"nodes":[
				6
			]
		}
	],
	"nodes":[
		{
			"mesh":0,
			"name":"TT_Bat2_Material #28_0",
			"rotation":[
				1,
				0,
				0,
				1.7763570511584873e-15
			],
			"translation":[
				-76.62187194824219,
				74.2232894897461,
				22.9428653717041
			]
		},
		{
			"children":[
				0
			],
			"name":"Object_16",
			"translation":[
				76.67841339111328,
				-74.2195816040039,
				-22.94286346435547
			]
		},
		{
			"children":[
				1
			],
			"name":"TT_Bat2",
			"rotation":[
				1,
				0,
				0,
				1.7763570511584873e-15
			]
		},
		{
			"children":[
				2
			],
			"name":"TableTennis_Board_1",
			"translation":[
				-0.05654076114296913,
				0.0037086436059325933,
				0
			]
		},
		{
			"children":[
				3
			],
			"name":"RootNode"
		},
		{
			"children":[
				4
			],
			"name":"Table_Tennis.FBX",
			"rotation":[
				0.70710688829422,
				0,
				0,
				0.7071066498756409
			],
			"scale":[
				0.009999999776482582,
				0.010000000707805157,
				0.010000000707805157
			]
		},
		{
			"children":[
				5
			],
			"name":"Sketchfab_model",
			"rotation":[
				-0.70710688829422,
				0,
				0,
				0.7071066498756409
			]
		}
	],
	"materials":[
		{
			"doubleSided":true,
			"name":"Material_28",
			"pbrMetallicRoughness":{
				"baseColorTexture":{
					"index":0
				},
				"metallicFactor":0,
				"roughnessFactor":0.43466493487358093
			}
		}
	],
	"meshes":[
		{
			"name":"TT_Bat2_Material #28_0",
			"primitives":[
				{
					"attributes":{
						"POSITION":0,
						"NORMAL":1,
						"TEXCOORD_0":2
					},
					"indices":3,
					"material":0
				}
			]
		}
	],
	"textures":[
		{
			"sampler":0,
			"source":0
		}
	],
	"images":[
		{
			"bufferView":4,
			"mimeType":"image/png",
			"name":"Material_25_baseColor"
		}
	],
	"accessors":[
		{
			"bufferView":0,
			"componentType":5126,
			"count":240,
			"max":[
				9.290740966796875,
				1.0921401977539062,
				10.755620956420898
			],
			"min":[
				-6.6565704345703125,
				-0.9401626586914062,
				-9.142440795898438
			],
			"type":"VEC3"
		},
		{
			"bufferView":1,
			"componentType":5126,
			"count":240,
			"type":"VEC3"
		},
		{
			"bufferView":2,
			"componentType":5126,
			"count":240,
			"type":"VEC2"
		},
		{
			"bufferView":3,
			"componentType":5123,
			"count":984,
			"type":"SCALAR"
		}
	],
	"bufferViews":[
		{
			"buffer":0,
			"byteLength":2880,
			"byteOffset":0,
			"target":34962
		},
		{
			"buffer":0,
			"byteLength":2880,
			"byteOffset":2880,
			"target":34962
		},
		{
			"buffer":0,
			"byteLength":1920,
			"byteOffset":5760,
			"target":34962
		},
		{
			"buffer":0,
			"byteLength":1968,
			"byteOffset":7680,
			"target":34963
		},
		{
			"buffer":0,
			"byteLength":614758,
			"byteOffset":9648
		}
	],
	"samplers":[
		{
			"magFilter":9729,
			"minFilter":9987
		}
	],
	"buffers":[
		{
			"byteLength":624408,
			"uri":"data:application/octet-stream;base64,"
		}
	]
}
